<svg width="39.643555" height="42.000000" viewBox="0 0 39.6436 42" fill="none" xmlns="http://www.w3.org/2000/svg" xmlns:xlink="http://www.w3.org/1999/xlink">
	<desc>
			Created with Pixso.
	</desc>
	<defs/>
	<path id="Vector 115" d="M17.49 33.98L16.55 33.98C7.96 33.98 1 27.02 1 18.43C1 9.84 7.96 2.88 16.55 2.88L17.49 2.88C26.08 2.88 33.04 9.84 33.04 18.43C33.04 27.02 26.08 33.98 17.49 33.98Z" fill="#FFFFFF" fill-opacity="1.000000" fill-rule="nonzero"/>
	<path id="Vector 115" d="M17.49 33.98C26.08 33.98 33.04 27.02 33.04 18.43C33.04 9.84 26.08 2.88 17.49 2.88L16.55 2.88C7.96 2.88 1 9.84 1 18.43C1 27.02 7.96 33.98 16.55 33.98L17.49 33.98Z" stroke="#A4A7F5" stroke-opacity="1.000000" stroke-width="2.000000"/>
	<path id="Vector 122" d="M7.12 11.36C8.16 11.36 9.01 12.21 9.01 13.25C9.01 14.29 8.16 15.13 7.12 15.13C6.08 15.13 5.24 14.29 5.24 13.25C5.24 12.21 6.08 11.36 7.12 11.36Z" fill="#FFFFFF" fill-opacity="1.000000" fill-rule="nonzero"/>
	<path id="Vector 122" d="M7.12 11.36C6.08 11.36 5.24 12.21 5.24 13.25C5.24 14.29 6.08 15.13 7.12 15.13C8.16 15.13 9.01 14.29 9.01 13.25C9.01 12.21 8.16 11.36 7.12 11.36Z" stroke="#A4A7F5" stroke-opacity="1.000000" stroke-width="2.000000"/>
	<path id="Vector 120" d="" fill="#FFFFFF" fill-opacity="1.000000" fill-rule="nonzero"/>
	<path id="Vector 120" d="M24.09 9.95L29.27 4.77" stroke="#A4A7F5" stroke-opacity="1.000000" stroke-width="2.000000"/>
	<path id="Vector 121" d="" fill="#FFFFFF" fill-opacity="1.000000" fill-rule="nonzero"/>
	<path id="Vector 121" d="M33.04 2.88L37.28 2.88" stroke="#A4A7F5" stroke-opacity="1.000000" stroke-width="2.000000"/>
	<path id="Vector 117" d="" fill="#FFFFFF" fill-opacity="1.000000" fill-rule="nonzero"/>
	<path id="Vector 117" d="M1.94 13.25L5.24 13.25" stroke="#A4A7F5" stroke-opacity="1.000000" stroke-width="2.000000"/>
	<path id="Vector 126" d="" fill="#FFFFFF" fill-opacity="1.000000" fill-rule="nonzero"/>
	<path id="Vector 126" d="M25.5 32.1C25.81 32.41 30.24 36.83 33.53 40.13C34.58 41.18 36.26 41.23 37.37 40.24C38.59 39.16 38.62 37.26 37.44 36.13L29.27 28.33" stroke="#A4A7F5" stroke-opacity="1.000000" stroke-width="2.000000"/>
	<path id="Vector 127" d="" fill="#FFFFFF" fill-opacity="1.000000" fill-rule="nonzero"/>
	<path id="Vector 127" d="M32.1 31.16L28.33 34.93" stroke="#A4A7F5" stroke-opacity="1.000000" stroke-width="2.000000"/>
	<path id="Vector 119" d="" fill="#FFFFFF" fill-opacity="1.000000" fill-rule="nonzero"/>
	<path id="Vector 119" d="M15.6 18.43L20.79 13.25" stroke="#A4A7F5" stroke-opacity="1.000000" stroke-width="2.000000"/>
	<path id="Vector 118" d="" fill="#FFFFFF" fill-opacity="1.000000" fill-rule="nonzero"/>
	<path id="Vector 118" d="M9.01 14.66L12.31 17.96" stroke="#A4A7F5" stroke-opacity="1.000000" stroke-width="2.000000"/>
	<path id="Vector 123" d="M13.72 17.96C14.76 17.96 15.6 18.8 15.6 19.85C15.6 20.89 14.76 21.73 13.72 21.73C12.68 21.73 11.83 20.89 11.83 19.85C11.83 18.8 12.68 17.96 13.72 17.96Z" fill="#FFFFFF" fill-opacity="1.000000" fill-rule="nonzero"/>
	<path id="Vector 123" d="M13.72 17.96C12.68 17.96 11.83 18.8 11.83 19.85C11.83 20.89 12.68 21.73 13.72 21.73C14.76 21.73 15.6 20.89 15.6 19.85C15.6 18.8 14.76 17.96 13.72 17.96Z" stroke="#A4A7F5" stroke-opacity="1.000000" stroke-width="2.000000"/>
	<path id="Vector 124" d="M22.2 9.48C23.24 9.48 24.09 10.32 24.09 11.36C24.09 12.4 23.24 13.25 22.2 13.25C21.16 13.25 20.32 12.4 20.32 11.36C20.32 10.32 21.16 9.48 22.2 9.48Z" fill="#FFFFFF" fill-opacity="1.000000" fill-rule="nonzero"/>
	<path id="Vector 124" d="M22.2 9.48C21.16 9.48 20.32 10.32 20.32 11.36C20.32 12.4 21.16 13.25 22.2 13.25C23.24 13.25 24.09 12.4 24.09 11.36C24.09 10.32 23.24 9.48 22.2 9.48Z" stroke="#A4A7F5" stroke-opacity="1.000000" stroke-width="2.000000"/>
	<path id="Vector 125" d="M30.68 1C31.73 1 32.57 1.84 32.57 2.88C32.57 3.92 31.73 4.77 30.68 4.77C29.64 4.77 28.8 3.92 28.8 2.88C28.8 1.84 29.64 1 30.68 1Z" fill="#FFFFFF" fill-opacity="1.000000" fill-rule="nonzero"/>
	<path id="Vector 125" d="M30.68 1C29.64 1 28.8 1.84 28.8 2.88C28.8 3.92 29.64 4.77 30.68 4.77C31.73 4.77 32.57 3.92 32.57 2.88C32.57 1.84 31.73 1 30.68 1Z" stroke="#A4A7F5" stroke-opacity="1.000000" stroke-width="2.000000"/>
</svg>
