<svg width="41.618164" height="42.000244" viewBox="0 0 41.6182 42.0002" fill="none" xmlns="http://www.w3.org/2000/svg" xmlns:xlink="http://www.w3.org/1999/xlink">
	<desc>
			Created with Pixso.
	</desc>
	<defs/>
	<path id="Vector 82" d="M38.61 41L3 41C1.89 41 1 40.1 1 39L1 5.68C1 4.58 1.89 3.68 3 3.68L38.61 3.68C39.72 3.68 40.61 4.58 40.61 5.68L40.61 39C40.61 40.1 39.72 41 38.61 41Z" fill="#FFFFFF" fill-opacity="1.000000" fill-rule="nonzero"/>
	<path id="Vector 82" d="M38.61 41C39.72 41 40.61 40.1 40.61 39L40.61 5.68C40.61 4.58 39.72 3.68 38.61 3.68L3 3.68C1.89 3.68 1 4.58 1 5.68L1 39C1 40.1 1.89 41 3 41L38.61 41Z" stroke="#A4A7F5" stroke-opacity="1.000000" stroke-width="2.000000"/>
	<path id="Vector 76" d="M18.19 18.42L18.19 23.64L12.97 23.64L12.97 28.86L18.19 28.86L18.19 34.08L23.99 34.08L23.99 28.86L28.64 28.86L28.64 23.64L23.41 23.64L23.41 18.42L18.19 18.42Z" fill="#FFFFFF" fill-opacity="1.000000" fill-rule="nonzero"/>
	<path id="Vector 76" d="M18.19 18.42L23.41 18.42L23.41 23.64L28.64 23.64L28.64 28.86L23.99 28.86L23.99 34.08L18.19 34.08L18.19 28.86L12.97 28.86L12.97 23.64L18.19 23.64L18.19 18.42Z" stroke="#A4A7F5" stroke-opacity="1.000000" stroke-width="2.000000"/>
	<path id="Vector 83" d="" fill="#FFFFFF" fill-opacity="1.000000" fill-rule="nonzero"/>
	<path id="Vector 83" d="M7.9 6.91L7.9 0" stroke="#A4A7F5" stroke-opacity="1.000000" stroke-width="2.000000"/>
	<path id="Vector 84" d="" fill="#FFFFFF" fill-opacity="1.000000" fill-rule="nonzero"/>
	<path id="Vector 84" d="M16.66 0L16.66 6.91" stroke="#A4A7F5" stroke-opacity="1.000000" stroke-width="2.000000"/>
	<path id="Vector 85" d="" fill="#FFFFFF" fill-opacity="1.000000" fill-rule="nonzero"/>
	<path id="Vector 85" d="M24.95 0L24.95 6.91" stroke="#A4A7F5" stroke-opacity="1.000000" stroke-width="2.000000"/>
	<path id="Vector 86" d="" fill="#FFFFFF" fill-opacity="1.000000" fill-rule="nonzero"/>
	<path id="Vector 86" d="M33.24 0L33.24 6.91" stroke="#A4A7F5" stroke-opacity="1.000000" stroke-width="2.000000"/>
	<path id="Vector 87" d="" fill="#FFFFFF" fill-opacity="1.000000" fill-rule="nonzero"/>
	<path id="Vector 87" d="M1 12.43L40.61 12.43" stroke="#A4A7F5" stroke-opacity="1.000000" stroke-width="2.000000"/>
</svg>
