<svg width="40.347656" height="43.000000" viewBox="0 0 40.3477 43" fill="none" xmlns="http://www.w3.org/2000/svg" xmlns:xlink="http://www.w3.org/1999/xlink">
	<desc>
			Created with Pixso.
	</desc>
	<defs/>
	<path id="Vector 93" d="M34 1L17.06 1C15.58 1 14.39 2.19 14.39 3.67C14.39 5.15 15.58 6.34 17.06 6.34L34 6.34C35.47 6.34 36.67 5.15 36.67 3.67C36.67 2.19 35.47 1 34 1Z" fill="#FFFFFF" fill-opacity="1.000000" fill-rule="nonzero"/>
	<path id="Vector 93" d="M34 1C35.47 1 36.67 2.19 36.67 3.67C36.67 5.15 35.47 6.34 34 6.34L17.06 6.34C15.58 6.34 14.39 5.15 14.39 3.67C14.39 2.19 15.58 1 17.06 1L34 1Z" stroke="#A4A7F5" stroke-opacity="1.000000" stroke-width="2.000000"/>
	<path id="Vector 94" d="M12.33 13.73C13.71 12.77 15.39 11.12 15.98 8.96C16.29 7.82 17.18 6.79 18.36 6.79L32.57 6.79C33.62 6.79 34.48 7.61 34.76 8.63C35.19 10.24 36.12 11.98 37.81 12.92C38.64 13.38 39.34 14.16 39.34 15.11L39.34 39.55C39.34 40.65 38.45 41.55 37.34 41.55L13.27 41.55C12.16 41.55 11.27 40.65 11.27 39.55L11.27 15.6C11.27 14.84 11.7 14.16 12.33 13.73Z" fill="#FFFFFF" fill-opacity="1.000000" fill-rule="nonzero"/>
	<path id="Vector 94" d="M12.33 13.73C11.7 14.16 11.27 14.84 11.27 15.6L11.27 39.55C11.27 40.65 12.16 41.55 13.27 41.55L37.34 41.55C38.45 41.55 39.34 40.65 39.34 39.55L39.34 15.11C39.34 14.16 38.64 13.38 37.81 12.92C36.12 11.98 35.19 10.24 34.76 8.63C34.48 7.61 33.62 6.79 32.57 6.79L18.36 6.79C17.18 6.79 16.29 7.82 15.98 8.96C15.39 11.12 13.71 12.77 12.33 13.73Z" stroke="#A4A7F5" stroke-opacity="1.000000" stroke-width="2.000000"/>
	<path id="Vector 95" d="" fill="#FFFFFF" fill-opacity="1.000000" fill-rule="nonzero"/>
	<path id="Vector 95" d="M11.5 17.93L30.21 17.93C31.32 17.93 32.21 18.83 32.21 19.93L32.21 32.42C32.21 33.52 31.32 34.42 30.21 34.42L15.28 34.42" stroke="#A4A7F5" stroke-opacity="1.000000" stroke-width="2.000000"/>
	<path id="Vector 96" d="M20.5 42L6.5 42C3.46 42 1 39.53 1 36.5C1 33.46 3.46 31 6.5 31L20.5 31C23.53 31 26 33.46 26 36.5C26 39.53 23.53 42 20.5 42Z" fill="#FFFFFF" fill-opacity="1.000000" fill-rule="nonzero"/>
	<path id="Vector 96" d="M20.5 42C23.53 42 26 39.53 26 36.5C26 33.46 23.53 31 20.5 31L6.5 31C3.46 31 1 33.46 1 36.5C1 39.53 3.46 42 6.5 42L20.5 42Z" stroke="#A4A7F5" stroke-opacity="1.000000" stroke-width="2.000000"/>
	<path id="Vector 97" d="" fill="#FFFFFF" fill-opacity="1.000000" fill-rule="nonzero"/>
	<path id="Vector 97" d="M13.5 32L13.5 41.5" stroke="#A4A7F5" stroke-opacity="1.000000" stroke-width="2.000000"/>
</svg>
