<svg width="37.695312" height="42.004395" viewBox="0 0 37.6953 42.0044" fill="none" xmlns="http://www.w3.org/2000/svg" xmlns:xlink="http://www.w3.org/1999/xlink">
	<desc>
			Created with Pixso.
	</desc>
	<defs/>
	<path id="Vector 92" d="M20.5 1C26.29 1 31 5.7 31 11.5C31 17.29 26.29 22 20.5 22C14.7 22 10 17.29 10 11.5C10 5.7 14.7 1 20.5 1Z" fill="#FFFFFF" fill-opacity="1.000000" fill-rule="nonzero"/>
	<path id="Vector 92" d="M20.5 1C14.7 1 10 5.7 10 11.5C10 17.29 14.7 22 20.5 22C26.29 22 31 17.29 31 11.5C31 5.7 26.29 1 20.5 1Z" stroke="#A4A7F5" stroke-opacity="1.000000" stroke-width="2.000000"/>
	<path id="Vector 76" d="M18.66 6L18.66 9.66L15 9.66L15 13.33L18.66 13.33L18.66 17L22.74 17L22.74 13.33L26 13.33L26 9.66L22.33 9.66L22.33 6L18.66 6Z" fill="#FFFFFF" fill-opacity="1.000000" fill-rule="nonzero"/>
	<path id="Vector 76" d="M18.66 6L22.33 6L22.33 9.66L26 9.66L26 13.33L22.74 13.33L22.74 17L18.66 17L18.66 13.33L15 13.33L15 9.66L18.66 9.66L18.66 6Z" stroke="#A4A7F5" stroke-opacity="1.000000" stroke-width="2.000000"/>
	<path id="Vector 88" d="" fill="#FFFFFF" fill-opacity="1.000000" fill-rule="nonzero"/>
	<path id="Vector 88" d="M1 17L1.11 42" stroke="#A4A7F5" stroke-opacity="1.000000" stroke-width="2.000000"/>
	<path id="Vector 89" d="" fill="#FFFFFF" fill-opacity="1.000000" fill-rule="nonzero"/>
	<path id="Vector 89" d="M1.11 30L34.69 30C35.79 30 36.69 30.89 36.69 32L36.69 42" stroke="#A4A7F5" stroke-opacity="1.000000" stroke-width="2.000000"/>
	<path id="Vector 90" d="" fill="#FFFFFF" fill-opacity="1.000000" fill-rule="nonzero"/>
	<path id="Vector 90" d="M1.11 35.59L36.69 35.59" stroke="#A4A7F5" stroke-opacity="1.000000" stroke-width="2.000000"/>
	<path id="Vector 91" d="" fill="#FFFFFF" fill-opacity="1.000000" fill-rule="nonzero"/>
	<path id="Vector 91" d="M1 23.03C5.97 22.59 10.5 27.73 11.5 29.5" stroke="#A4A7F5" stroke-opacity="1.000000" stroke-width="2.000000"/>
</svg>
