<svg width="42.341309" height="43.000000" viewBox="0 0 42.3413 43" fill="none" xmlns="http://www.w3.org/2000/svg" xmlns:xlink="http://www.w3.org/1999/xlink">
	<desc>
			Created with Pixso.
	</desc>
	<defs/>
	<path id="Vector 69" d="M4.13 21.83L7 14.86L7 24.51L5.71 40.08C5.62 41.11 6.44 42 7.47 42C8.36 42 9.11 41.34 9.23 40.46L10.98 27.19C11.02 26.87 11.3 26.62 11.63 26.62C11.96 26.62 12.24 26.87 12.29 27.19L13.98 40.01C14.12 41.1 15.13 41.85 16.22 41.68C17.22 41.52 17.94 40.6 17.85 39.59L16.56 24.51L16.56 14.86L20.24 22.02C20.61 22.74 21.48 23.06 22.24 22.75C23.08 22.4 23.45 21.4 23.04 20.59L18.81 12.19C17.96 10.5 16.23 9.44 14.34 9.44L8.97 9.44C6.91 9.44 5.06 10.7 4.31 12.62L1.18 20.66C0.87 21.46 1.26 22.36 2.05 22.69C2.86 23.03 3.79 22.64 4.13 21.83Z" fill="#FFFFFF" fill-opacity="1.000000" fill-rule="nonzero"/>
	<path id="Vector 69" d="M4.13 21.83C3.79 22.64 2.86 23.03 2.05 22.69C1.26 22.36 0.87 21.46 1.18 20.66L4.31 12.62C5.06 10.7 6.91 9.44 8.97 9.44L14.34 9.44C16.23 9.44 17.96 10.5 18.81 12.19L23.04 20.59C23.45 21.4 23.08 22.4 22.24 22.75C21.48 23.06 20.61 22.74 20.24 22.02L16.56 14.86L16.56 24.51L17.85 39.59C17.94 40.6 17.22 41.52 16.22 41.68C15.13 41.85 14.12 41.1 13.98 40.01L12.29 27.19C12.24 26.87 11.96 26.62 11.63 26.62C11.3 26.62 11.02 26.87 10.98 27.19L9.23 40.46C9.11 41.34 8.36 42 7.47 42C6.44 42 5.62 41.11 5.71 40.08L7 24.51L7 14.86L4.13 21.83Z" stroke="#A4A7F5" stroke-opacity="1.000000" stroke-width="2.000000"/>
	<path id="Vector 70" d="M7.75 5.28L7.75 5.15C7.75 2.86 9.62 1 11.91 1C14.21 1 16.07 2.86 16.07 5.15L16.07 5.28C16.07 7.57 14.21 9.44 11.91 9.44C9.62 9.44 7.75 7.57 7.75 5.28Z" fill="#FFFFFF" fill-opacity="1.000000" fill-rule="nonzero"/>
	<path id="Vector 70" d="M7.75 5.28C7.75 7.57 9.62 9.44 11.91 9.44C14.21 9.44 16.07 7.57 16.07 5.28L16.07 5.15C16.07 2.86 14.21 1 11.91 1C9.62 1 7.75 2.86 7.75 5.15L7.75 5.28Z" stroke="#A4A7F5" stroke-opacity="1.000000" stroke-width="2.000000"/>
	<path id="Vector 71" d="" fill="#FFFFFF" fill-opacity="1.000000" fill-rule="nonzero"/>
	<path id="Vector 71" d="M41.62 32.65L36.87 27.83L33.31 31.75L38.06 36.27" stroke="#A4A7F5" stroke-opacity="1.000000" stroke-width="2.000000"/>
	<path id="Vector 72" d="M38.62 26.75L32.42 34L29.62 30.89L35.83 24L38.62 26.75Z" fill="#FFFFFF" fill-opacity="1.000000" fill-rule="nonzero"/>
	<path id="Vector 72" d="M38.62 26.75L35.83 24L29.62 30.89L32.42 34L38.62 26.75Z" stroke="#A4A7F5" stroke-opacity="1.000000" stroke-width="2.000000"/>
	<path id="Vector 73" d="M13.99 19.85L13.99 19.52C13.99 13.29 19.05 8.23 25.28 8.23C31.52 8.23 36.57 13.29 36.57 19.52L36.57 19.85C36.57 26.09 31.52 31.14 25.28 31.14C19.05 31.14 13.99 26.09 13.99 19.85Z" fill="#FFFFFF" fill-opacity="1.000000" fill-rule="nonzero"/>
	<path id="Vector 73" d="M13.99 19.85C13.99 26.09 19.05 31.14 25.28 31.14C31.52 31.14 36.57 26.09 36.57 19.85L36.57 19.52C36.57 13.29 31.52 8.23 25.28 8.23C19.05 8.23 13.99 13.29 13.99 19.52L13.99 19.85Z" stroke="#A4A7F5" stroke-opacity="1.000000" stroke-width="2.000000"/>
	<path id="Vector 75" d="M23.29 14L23.29 17.66L19.62 17.66L19.62 21.33L23.29 21.33L23.29 25L27.36 25L27.36 21.33L30.62 21.33L30.62 17.66L26.96 17.66L26.96 14L23.29 14Z" fill="#FFFFFF" fill-opacity="1.000000" fill-rule="nonzero"/>
	<path id="Vector 75" d="M23.29 14L26.96 14L26.96 17.66L30.62 17.66L30.62 21.33L27.36 21.33L27.36 25L23.29 25L23.29 21.33L19.62 21.33L19.62 17.66L23.29 17.66L23.29 14Z" stroke="#A4A7F5" stroke-opacity="1.000000" stroke-width="2.000000"/>
</svg>
