<svg width="44.475098" height="43.000000" viewBox="0 0 44.4751 43" fill="none" xmlns="http://www.w3.org/2000/svg" xmlns:xlink="http://www.w3.org/1999/xlink">
	<desc>
			Created with Pixso.
	</desc>
	<defs/>
	<path id="Vector 76" d="M43.18 21.91L43.47 38.94C43.5 40.62 42.15 42 40.47 42L9.55 42L9.55 21.96C9.55 20.3 10.89 18.96 12.55 18.96L40.18 18.96C41.82 18.96 43.15 20.27 43.18 21.91Z" fill="#FFFFFF" fill-opacity="1.000000" fill-rule="nonzero"/>
	<path id="Vector 76" d="M3.69 12.32C2.19 12.32 0.98 13.55 1 15.05L1.31 39.03C1.33 40.68 2.67 42 4.31 42L9.55 42L40.47 42C42.15 42 43.5 40.62 43.47 38.94L43.18 21.91C43.15 20.27 41.82 18.96 40.18 18.96L12.55 18.96C10.89 18.96 9.55 20.3 9.55 21.96L9.55 42" stroke="#A4A7F5" stroke-opacity="1.000000" stroke-width="2.000000"/>
	<path id="Vector 77" d="" fill="#FFFFFF" fill-opacity="1.000000" fill-rule="nonzero"/>
	<path id="Vector 77" d="M5.64 34.58L5.64 4C5.64 2.34 6.99 1 8.64 1L32.32 1C33.98 1 35.32 2.34 35.32 4L35.32 16.61" stroke="#A4A7F5" stroke-opacity="1.000000" stroke-width="2.000000"/>
	<path id="Vector 78" d="" fill="#FFFFFF" fill-opacity="1.000000" fill-rule="nonzero"/>
	<path id="Vector 78" d="M31.03 8.41L22.83 8.41" stroke="#A4A7F5" stroke-opacity="1.000000" stroke-width="2.000000"/>
	<path id="Vector 79" d="" fill="#FFFFFF" fill-opacity="1.000000" fill-rule="nonzero"/>
	<path id="Vector 79" d="M31.03 11.93L22.83 11.93" stroke="#A4A7F5" stroke-opacity="1.000000" stroke-width="2.000000"/>
	<path id="Vector 80" d="M17.14 15.44L12.11 15.44C11.56 15.44 11.11 15 11.11 14.44L11.11 12.63C11.11 12.18 11.27 11.74 11.55 11.38L12.07 10.73C12.45 10.25 13.03 9.98 13.63 9.98L15.62 9.98C16.22 9.98 16.8 10.25 17.18 10.73L17.7 11.38C17.99 11.74 18.14 12.18 18.14 12.63L18.14 14.44C18.14 15 17.69 15.44 17.14 15.44Z" fill="#FFFFFF" fill-opacity="1.000000" fill-rule="nonzero"/>
	<path id="Vector 80" d="M17.14 15.44C17.69 15.44 18.14 15 18.14 14.44L18.14 12.63C18.14 12.18 17.99 11.74 17.7 11.38L17.18 10.73C16.8 10.25 16.22 9.98 15.62 9.98L13.63 9.98C13.03 9.98 12.45 10.25 12.07 10.73L11.55 11.38C11.27 11.74 11.11 12.18 11.11 12.63L11.11 14.44C11.11 15 11.56 15.44 12.11 15.44L17.14 15.44Z" stroke="#A4A7F5" stroke-opacity="1.000000" stroke-width="2.000000"/>
	<path id="Vector 81" d="M14.63 4.12C16.35 4.12 17.75 5.52 17.75 7.24C17.75 8.97 16.35 10.37 14.63 10.37C12.9 10.37 11.5 8.97 11.5 7.24C11.5 5.52 12.9 4.12 14.63 4.12Z" fill="#FFFFFF" fill-opacity="1.000000" fill-rule="nonzero"/>
	<path id="Vector 81" d="M14.63 4.12C12.9 4.12 11.5 5.52 11.5 7.24C11.5 8.97 12.9 10.37 14.63 10.37C16.35 10.37 17.75 8.97 17.75 7.24C17.75 5.52 16.35 4.12 14.63 4.12Z" stroke="#A4A7F5" stroke-opacity="1.000000" stroke-width="2.000000"/>
	<path id="Vector 76" d="M24.63 25L24.63 28.66L20.96 28.66L20.96 32.33L24.63 32.33L24.63 36L28.7 36L28.7 32.33L31.96 32.33L31.96 28.66L28.29 28.66L28.29 25L24.63 25Z" fill="#FFFFFF" fill-opacity="1.000000" fill-rule="nonzero"/>
	<path id="Vector 76" d="M24.63 25L28.29 25L28.29 28.66L31.96 28.66L31.96 32.33L28.7 32.33L28.7 36L24.63 36L24.63 32.33L20.96 32.33L20.96 28.66L24.63 28.66L24.63 25Z" stroke="#A4A7F5" stroke-opacity="1.000000" stroke-width="2.000000"/>
</svg>
