<svg width="50.047363" height="58.408203" viewBox="0 0 50.0474 58.4082" fill="none" xmlns="http://www.w3.org/2000/svg" xmlns:xlink="http://www.w3.org/1999/xlink">
	<desc>
			Created with Pixso.
	</desc>
	<defs/>
	<path id="Vector 129" d="" fill="#FFFFFF" fill-opacity="1.000000" fill-rule="nonzero"/>
	<path id="Vector 129" d="M23.14 49.24L35.67 13.36C36.05 12.3 34.64 11.53 33.95 12.41L10.59 41.97" stroke="#A4A7F5" stroke-opacity="1.000000" stroke-width="2.000000"/>
	<path id="Vector 130" d="M1.88 40.74L2.58 39.31C3.62 37.18 6.19 36.3 8.32 37.34C10.45 38.39 11.34 40.96 10.29 43.09L9.6 44.51C8.56 46.64 5.98 47.52 3.85 46.48C1.72 45.44 0.84 42.87 1.88 40.74Z" fill="#FFFFFF" fill-opacity="1.000000" fill-rule="nonzero"/>
	<path id="Vector 130" d="M1.88 40.74C0.84 42.87 1.72 45.44 3.85 46.48C5.98 47.52 8.56 46.64 9.6 44.51L10.29 43.09C11.34 40.96 10.45 38.39 8.32 37.34C6.19 36.3 3.62 37.18 2.58 39.31C2.35 39.78 2.12 40.26 1.88 40.74Z" stroke="#A4A7F5" stroke-opacity="1.000000" stroke-width="2.000000"/>
	<path id="Vector 131" d="M22.53 50.52L23.22 49.1C24.26 46.97 26.84 46.08 28.97 47.13C31.1 48.17 31.98 50.74 30.94 52.87L30.24 54.29C29.2 56.42 26.63 57.31 24.5 56.26C22.37 55.22 21.48 52.65 22.53 50.52Z" fill="#FFFFFF" fill-opacity="1.000000" fill-rule="nonzero"/>
	<path id="Vector 131" d="M22.53 50.52C21.48 52.65 22.37 55.22 24.5 56.26C26.63 57.31 29.2 56.42 30.24 54.29L30.94 52.87C31.98 50.74 31.1 48.17 28.97 47.13C26.84 46.08 24.26 46.97 23.22 49.1C23 49.56 22.76 50.04 22.53 50.52Z" stroke="#A4A7F5" stroke-opacity="1.000000" stroke-width="2.000000"/>
	<path id="Vector 132" d="" fill="#FFFFFF" fill-opacity="1.000000" fill-rule="nonzero"/>
	<path id="Vector 132" d="M26.14 22.14L31.64 25.24" stroke="#A4A7F5" stroke-opacity="1.000000" stroke-width="2.000000"/>
</svg>
