<svg width="38.050781" height="43.090576" viewBox="0 0 38.0508 43.0906" fill="none" xmlns="http://www.w3.org/2000/svg" xmlns:xlink="http://www.w3.org/1999/xlink">
	<desc>
			Created with Pixso.
	</desc>
	<defs/>
	<path id="Vector 106" d="M32.91 42.09L6.91 42.09L6.91 40.59C6.91 39.48 7.81 38.59 8.91 38.59L30.91 38.59C32.01 38.59 32.91 39.48 32.91 40.59L32.91 42.09Z" fill="#FFFFFF" fill-opacity="1.000000" fill-rule="nonzero"/>
	<path id="Vector 106" d="M32.91 42.09L32.91 40.59C32.91 39.48 32.01 38.59 30.91 38.59L8.91 38.59C7.81 38.59 6.91 39.48 6.91 40.59L6.91 42.09L32.91 42.09Z" stroke="#A4A7F5" stroke-opacity="1.000000" stroke-width="2.000000"/>
	<path id="Vector 107" d="" fill="#FFFFFF" fill-opacity="1.000000" fill-rule="nonzero"/>
	<path id="Vector 107" d="M14.41 39.09L20.41 31.09" stroke="#A4A7F5" stroke-opacity="1.000000" stroke-width="2.000000"/>
	<path id="Vector 108" d="" fill="#FFFFFF" fill-opacity="1.000000" fill-rule="nonzero"/>
	<path id="Vector 108" d="M25.41 31.09L19.91 38.59" stroke="#A4A7F5" stroke-opacity="1.000000" stroke-width="2.000000"/>
	<path id="Vector 110" d="M7.54 2.41L14.44 22.24C14.72 23.05 15.48 23.59 16.33 23.59L31.91 23.59C33.01 23.59 33.91 24.48 33.91 25.59L33.91 29.59C33.91 30.69 33.01 31.59 31.91 31.59L12.31 31.59C11.47 31.59 10.72 31.06 10.43 30.27L1.12 4.56C0.74 3.49 1.32 2.3 2.42 1.97L5.07 1.15C6.09 0.84 7.19 1.39 7.54 2.41Z" fill="#FFFFFF" fill-opacity="1.000000" fill-rule="nonzero"/>
	<path id="Vector 110" d="M7.54 2.41C7.19 1.39 6.09 0.84 5.07 1.15L2.42 1.97C1.32 2.3 0.74 3.49 1.12 4.56L10.43 30.27C10.72 31.06 11.47 31.59 12.31 31.59L31.91 31.59C33.01 31.59 33.91 30.69 33.91 29.59L33.91 25.59C33.91 24.48 33.01 23.59 31.91 23.59L16.33 23.59C15.48 23.59 14.72 23.05 14.44 22.24L7.54 2.41Z" stroke="#A4A7F5" stroke-opacity="1.000000" stroke-width="2.000000"/>
	<path id="Vector 111" d="" fill="#FFFFFF" fill-opacity="1.000000" fill-rule="nonzero"/>
	<path id="Vector 111" d="M7.41 2.09L9.53 1.55C10.58 1.29 11.64 1.91 11.94 2.95L12.95 6.49C13.22 7.41 12.79 8.4 11.93 8.83L10.41 9.59" stroke="#A4A7F5" stroke-opacity="1.000000" stroke-width="2.000000"/>
	<path id="Vector 112" d="" fill="#FFFFFF" fill-opacity="1.000000" fill-rule="nonzero"/>
	<path id="Vector 112" d="M10.91 13.09L12.97 12.31C14.03 11.92 15.21 12.48 15.57 13.55L16.83 17.34C17.16 18.33 16.67 19.4 15.72 19.81L13.91 20.59" stroke="#A4A7F5" stroke-opacity="1.000000" stroke-width="2.000000"/>
	<path id="Vector 113" d="" fill="#FFFFFF" fill-opacity="1.000000" fill-rule="nonzero"/>
	<path id="Vector 113" d="M24.41 23.09L26.23 19.9C26.35 19.69 26.5 19.51 26.69 19.35L29.41 17.09L31.91 19.09L29.75 20.81C29.53 20.99 29.34 21.22 29.21 21.48L28.41 23.09" stroke="#A4A7F5" stroke-opacity="1.000000" stroke-width="2.000000"/>
	<path id="Vector 114" d="M36.92 18.6C36.05 16.69 34.11 14.27 30.11 12.63C29.18 12.24 28.16 12.78 27.85 13.73C27.59 14.53 27.91 15.4 28.62 15.84L31.22 17.46C31.34 17.55 31.46 17.64 31.57 17.75L34.05 20.23C34.57 20.75 35.35 20.9 36.03 20.61C36.83 20.26 37.28 19.39 36.92 18.6Z" fill="#FFFFFF" fill-opacity="1.000000" fill-rule="nonzero"/>
	<path id="Vector 114" d="M36.92 18.6C37.28 19.39 36.83 20.26 36.03 20.61C35.35 20.9 34.57 20.75 34.05 20.23L31.57 17.75C31.46 17.64 31.34 17.55 31.22 17.46L28.62 15.84C27.91 15.4 27.59 14.53 27.85 13.73C28.16 12.78 29.18 12.24 30.11 12.63C34.11 14.27 36.05 16.69 36.92 18.6Z" stroke="#A4A7F5" stroke-opacity="1.000000" stroke-width="2.000000"/>
</svg>
